<?xml version="1.0" standalone="no"?>
<!DOCTYPE svg PUBLIC "-//W3C//DTD SVG 20010904//EN"
 "http://www.w3.org/TR/2001/REC-SVG-20010904/DTD/svg10.dtd">
<svg version="1.0" xmlns="http://www.w3.org/2000/svg"
 width="1912.000000pt" height="1553.000000pt" viewBox="0 0 1912.000000 1553.000000"
 preserveAspectRatio="xMidYMid meet">

<g transform="translate(0.000000,1553.000000) scale(0.100000,-0.100000)"
fill="#000000" stroke="none">
<path d="M16415 14815 c-247 -40 -481 -143 -695 -303 -188 -142 -368 -327
-630 -652 -368 -454 -529 -631 -739 -813 -844 -728 -1970 -1058 -3109 -911
-257 33 -550 105 -1085 265 -375 112 -539 157 -737 203 -718 164 -1283 134
-1755 -94 -577 -279 -955 -882 -1074 -1715 -42 -291 -44 -357 -47 -1190 -2
-948 -12 -1134 -80 -1480 -134 -687 -426 -1159 -920 -1485 -131 -87 -303 -174
-479 -243 -262 -103 -509 -170 -1075 -292 -806 -174 -1110 -273 -1503 -493
-274 -154 -487 -313 -710 -531 -494 -482 -800 -1078 -899 -1745 -27 -187 -30
-533 -5 -715 44 -318 122 -573 259 -849 373 -754 1074 -1255 1898 -1358 148
-18 451 -18 610 1 952 111 1839 668 2614 1640 213 267 346 457 676 970 534
829 768 1143 1110 1485 514 514 1089 794 1680 817 395 15 742 -84 1075 -308
214 -144 387 -300 715 -644 311 -327 485 -496 625 -608 379 -304 711 -441
1070 -441 271 0 503 74 744 235 268 179 499 477 635 820 127 320 173 632 163
1114 -7 360 -32 586 -133 1205 -97 597 -122 807 -131 1120 -20 706 151 1282
501 1682 188 216 469 406 802 542 168 69 374 137 764 252 558 165 735 227 965
339 439 213 800 565 1015 990 311 612 298 1345 -35 1982 -319 612 -885 1060
-1510 1193 -132 29 -437 36 -570 15z"/>
</g>
</svg>
