<?xml version="1.0" standalone="no"?>
<!DOCTYPE svg PUBLIC "-//W3C//DTD SVG 20010904//EN"
 "http://www.w3.org/TR/2001/REC-SVG-20010904/DTD/svg10.dtd">
<svg version="1.0" xmlns="http://www.w3.org/2000/svg"
 width="1593.000000pt" height="1268.000000pt" viewBox="0 0 1593.000000 1268.000000"
 preserveAspectRatio="xMidYMid meet">

<g transform="translate(0.000000,1268.000000) scale(0.100000,-0.100000)"
fill="#000000" stroke="none">
<path d="M5557 12125 c-884 -112 -1775 -684 -2653 -1705 -698 -812 -1372
-1954 -1805 -3057 -34 -89 -66 -160 -69 -158 -4 2 -16 -37 -28 -88 -242 -1062
-149 -2052 274 -2926 107 -221 162 -317 289 -511 777 -1178 2205 -2099 4035
-2604 1780 -491 3785 -537 5495 -126 833 200 1622 531 2225 932 296 198 492
358 740 607 373 375 633 756 823 1206 251 595 353 1318 261 1855 -133 780
-644 1437 -1578 2030 -348 221 -550 328 -1517 809 -1004 499 -1344 679 -1819
966 -868 525 -1455 981 -2200 1710 -243 238 -345 331 -464 425 -428 337 -856
539 -1317 620 -159 28 -526 36 -692 15z"/>
</g>
</svg>
